<?xml version="1.0" encoding="UTF-8" standalone="no"?>
<!DOCTYPE svg PUBLIC "-//W3C//DTD SVG 1.1//EN"
 "http://www.w3.org/Graphics/SVG/1.1/DTD/svg11.dtd">
<!-- Generated by graphviz version 2.38.0 (20140413.2041)
 -->
<!-- Title: %3 Pages: 1 -->
<svg width="141pt" height="188pt"
 viewBox="0.00 0.00 140.59 188.00" xmlns="http://www.w3.org/2000/svg" xmlns:xlink="http://www.w3.org/1999/xlink">
<g id="graph0" class="graph" transform="scale(1 1) rotate(0) translate(4 184)">
<title>%3</title>
<polygon fill="white" stroke="none" points="-4,4 -4,-184 136.592,-184 136.592,4 -4,4"/>
<!-- D -->
<g id="node1" class="node"><title>D</title>
<ellipse fill="none" stroke="black" cx="50.6955" cy="-90" rx="50.8918" ry="18"/>
<text text-anchor="middle" x="50.6955" y="-86.3" font-family="Times New Roman,serif" font-size="14.00">Title length</text>
</g>
<!-- Y -->
<g id="node3" class="node"><title>Y</title>
<ellipse fill="none" stroke="black" cx="89.6955" cy="-18" rx="42.7926" ry="18"/>
<text text-anchor="middle" x="89.6955" y="-14.3" font-family="Times New Roman,serif" font-size="14.00">Citations</text>
</g>
<!-- D&#45;&gt;Y -->
<g id="edge1" class="edge"><title>D&#45;&gt;Y</title>
<path fill="none" stroke="black" d="M60.1363,-72.055C64.7351,-63.8006 70.3619,-53.7014 75.4673,-44.5378"/>
<polygon fill="black" stroke="black" points="78.532,-46.2282 80.3416,-35.789 72.4171,-42.8212 78.532,-46.2282"/>
</g>
<!-- Z -->
<g id="node2" class="node"><title>Z</title>
<ellipse fill="none" stroke="black" cx="89.6955" cy="-162" rx="36.2938" ry="18"/>
<text text-anchor="middle" x="89.6955" y="-158.3" font-family="Times New Roman,serif" font-size="14.00">Author</text>
</g>
<!-- Z&#45;&gt;D -->
<g id="edge2" class="edge"><title>Z&#45;&gt;D</title>
<path fill="none" stroke="black" d="M80.453,-144.411C75.8579,-136.163 70.2005,-126.009 65.0567,-116.777"/>
<polygon fill="black" stroke="black" points="68.0671,-114.988 60.1425,-107.956 61.9521,-118.395 68.0671,-114.988"/>
</g>
<!-- Z&#45;&gt;Y -->
<g id="edge3" class="edge"><title>Z&#45;&gt;Y</title>
<path fill="none" stroke="black" d="M98.1961,-144.306C102.905,-134.108 108.283,-120.638 110.696,-108 113.696,-92.2838 113.696,-87.7162 110.696,-72 108.961,-62.9162 105.696,-53.4028 102.247,-44.9836"/>
<polygon fill="black" stroke="black" points="105.402,-43.4613 98.1961,-35.6941 98.9854,-46.2595 105.402,-43.4613"/>
</g>
</g>
</svg>
